<svg ml-update="aware" viewBox="55 55 390 390">
<g id="layer1" style="display:inline" sodipodi:insensitive="true">
  <path d="M 250,155 H 100 c 0,0 -45,0 -45,95 0,95 45,95 45,95 h 45 v -45 c 0,-30 25,-55 55,-55 h 100 c 25,0 45,-20 45,-45 V 100 c 0,0 0,-45 -95,-45 -95,0 -95,45 -95,45 v 45 h 95 z" id="path101" style="fill:#3377bb;fill-opacity:1" sodipodi:nodetypes="cczccssssczcccc"></path>
  <path d="m 250,345 h 150 c 0,0 45,0 45,-95 0,-95 -45,-95 -45,-95 h -45 v 45 c 0,30 -25,55 -55,55 H 200 c -25,0 -45,20 -45,45 v 100 c 0,0 0,45 95,45 95,0 95,-45 95,-45 v -45 h -95 z" id="path102" style="fill:#ffbb33;fill-opacity:1" sodipodi:nodetypes="cczccssssczcccc"></path>
  <circle style="fill:#ffffff;fill-opacity:1" id="path103" cx="200" cy="100" r="15"></circle>
  <circle style="fill:#ffffff;fill-opacity:1" id="path104" cx="300" cy="400" r="15"></circle>
</g></svg>